<svg xmlns="http://www.w3.org/2000/svg" viewBox="0 0 200 120" enable-background="new 0 0 200 120"><path d="M44.758 71.79c.045 1.737.334 2.317.774 2.467.39.136.807.16 1.164.16.24 0 .38.048.38.182 0 .174-.2.22-.513.22-1.453 0-2.344-.07-2.762-.07-.2 0-1.246.07-2.4.07-.294 0-.495-.023-.495-.22 0-.135.14-.182.356-.182.29 0 .697-.025 1.003-.11.585-.18.668-.82.69-2.758l.2-13.18c0-.435.068-.753.296-.753.238 0 .433.29.818.688.26.295 3.647 3.92 6.9 7.143 1.513 1.52 4.51 4.722 4.893 5.078h.107l-.217-9.988c-.022-1.367-.223-1.785-.758-2.01-.334-.125-.87-.125-1.18-.125-.262 0-.356-.073-.356-.203 0-.184.244-.2.58-.2 1.163 0 2.226.066 2.694.066.245 0 1.09-.066 2.183-.066.284 0 .512.017.512.2 0 .13-.14.203-.4.203-.23 0-.408 0-.67.062-.628.178-.806.643-.823 1.89l-.25 14.04c0 .49-.09.69-.284.69-.245 0-.507-.242-.757-.485-1.402-1.336-4.253-4.252-6.558-6.548-2.433-2.4-4.905-5.182-5.295-5.608h-.072l.243 9.346zM81.663 66.824c0-4.98-2.868-8.07-6.515-8.07-2.56 0-5.473 1.425-5.473 6.968 0 4.626 2.556 8.296 6.82 8.296 1.565 0 5.168-.746 5.168-7.194zM66.6 66.406c0-3.798 2.513-8.716 9.194-8.716 5.535 0 8.98 3.226 8.98 8.32 0 5.098-3.557 9.124-9.208 9.124-6.387 0-8.965-4.786-8.965-8.728zM92.047 60.18c-.506-1.22-.885-1.465-1.687-1.697-.34-.087-.685-.087-.87-.087-.205 0-.266-.066-.266-.203 0-.173.245-.195.584-.195 1.175 0 2.445.066 3.213.066.563 0 1.627-.066 2.746-.066.267 0 .512.042.512.195 0 .155-.134.203-.334.203-.362 0-.69.025-.87.157-.155.11-.216.267-.216.47 0 .284.195.908.507 1.707l3.83 10.108h.084c.957-2.447 3.852-9.62 4.387-11.085.11-.284.195-.624.195-.822 0-.177-.084-.353-.284-.422-.267-.087-.602-.112-.89-.112-.2 0-.38-.025-.38-.178 0-.178.195-.22.624-.22 1.108 0 2.05.067 2.333.067.378 0 1.43-.066 2.1-.066.283 0 .46.04.46.194 0 .155-.132.203-.355.203-.222 0-.695 0-1.086.268-.3.195-.624.58-1.23 2-.87 2.095-1.47 3.292-2.667 6.03-1.432 3.244-2.473 5.675-2.963 6.788-.58 1.286-.713 1.65-1.025 1.65-.285 0-.424-.313-.842-1.36l-5.61-13.594zM120.082 67.893c.105 0 .133-.06.105-.128l-2-5.496c-.015-.092-.05-.2-.11-.2-.067 0-.1.108-.128.2l-2.05 5.473c-.022.09 0 .15.095.15h4.087zm-4.543 1.12c-.107 0-.15.043-.19.176l-1.21 3.187c-.222.548-.327 1.083-.327 1.35 0 .4.2.69.885.69h.334c.273 0 .335.047.335.18 0 .17-.134.22-.38.22-.71 0-1.67-.07-2.36-.07-.24 0-1.464.07-2.628.07-.285 0-.418-.05-.418-.22 0-.133.088-.18.266-.18.2 0 .507-.025.69-.045 1.025-.133 1.443-.89 1.894-1.996l5.58-13.982c.272-.642.406-.884.623-.884.2 0 .334.197.55.707.54 1.223 4.105 10.298 5.53 13.68.84 2.014 1.487 2.322 1.954 2.428.333.067.667.092.935.092.178 0 .284.022.284.18 0 .17-.202.22-1.02.22-.802 0-2.427 0-4.21-.05-.4-.02-.662-.02-.662-.17 0-.133.09-.18.318-.205.145-.047.3-.237.195-.51l-1.78-4.718c-.045-.108-.112-.153-.223-.153h-4.968v.002zM137.304 66.21c0 .243.044.335.195.402.472.15 1.14.212 1.69.212.897 0 1.187-.084 1.582-.37.668-.493 1.31-1.512 1.31-3.338 0-3.162-2.09-4.07-3.398-4.07-.557 0-.952.02-1.186.084-.15.047-.195.14-.195.312v6.77zm-2.628-1.76c0-3.384 0-4.004-.04-4.72-.05-.752-.222-1.12-.957-1.266-.18-.043-.563-.068-.863-.068-.256 0-.39-.047-.39-.203 0-.153.156-.195.496-.195 1.18 0 2.584.066 3.05.066.753 0 2.44-.066 3.136-.066 1.402 0 2.89.13 4.092.95.624.424 1.514 1.564 1.514 3.055 0 1.64-.69 3.154-2.945 4.98 1.99 2.496 3.525 4.475 4.834 5.853 1.247 1.292 2.166 1.448 2.5 1.51.24.046.44.072.62.072.182 0 .26.075.26.18 0 .17-.156.22-.412.22h-2.122c-1.247 0-1.798-.11-2.383-.425-.957-.51-1.798-1.556-3.04-3.27-.897-1.226-1.92-2.732-2.205-3.072-.117-.124-.245-.158-.4-.158l-1.944-.036c-.105 0-.172.036-.172.178v.306c0 2.066 0 3.83.105 4.764.068.64.202 1.136.87 1.222.34.047.83.092 1.092.092.184 0 .273.075.273.18 0 .155-.156.22-.45.22-1.287 0-2.936-.066-3.27-.066-.417 0-1.82.067-2.71.067-.29 0-.447-.068-.447-.22 0-.106.083-.182.35-.182.34 0 .608-.045.808-.092.445-.086.55-.582.64-1.222.11-.933.11-2.698.11-4.738V64.45zM157.91 59.243l-3.312.087c-1.286.044-1.82.16-2.155.645-.223.34-.34.598-.384.78-.04.18-.107.27-.24.27-.162 0-.2-.11-.2-.36 0-.35.416-2.376.467-2.56.06-.285.134-.417.26-.417.18 0 .408.22.965.267.64.066 1.486.117 2.222.117h8.808c1.426 0 1.96-.23 2.138-.23.15 0 .18.123.18.463 0 .467-.068 2.01-.068 2.586-.023.224-.067.36-.2.36-.18 0-.217-.117-.245-.448l-.023-.245c-.044-.582-.645-1.2-2.628-1.25l-2.8-.064v9.123c0 2.04 0 3.805.116 4.76.062.618.195 1.114.857 1.2.322.047.807.092 1.14.092.246 0 .352.075.352.18 0 .15-.173.22-.417.22-1.465 0-2.873-.07-3.49-.07-.52 0-1.917.07-2.807.07-.29 0-.446-.07-.446-.22 0-.104.09-.18.357-.18.327 0 .6-.045.8-.092.44-.086.574-.582.647-1.222.106-.933.106-2.698.106-4.738v-9.123h-.002zM175.2 64.45c0-3.384 0-4.004-.05-4.72-.04-.758-.262-1.13-.752-1.248-.245-.06-.53-.087-.796-.087-.222 0-.362-.047-.362-.22 0-.144.184-.177.534-.177.847 0 2.25.066 2.896.066.562 0 1.87-.066 2.717-.066.29 0 .468.034.468.178 0 .172-.14.22-.35.22-.23 0-.407.024-.674.067-.606.114-.784.496-.823 1.266-.04.714-.04 1.335-.04 4.718v3.917c0 2.16 0 3.91.078 4.872.073.604.223 1.002.897 1.088.312.047.8.092 1.136.092.244 0 .362.075.362.18 0 .15-.184.22-.434.22-1.465 0-2.862-.07-3.47-.07-.51 0-1.914.07-2.805.07-.29 0-.44-.07-.44-.22 0-.104.09-.18.353-.18.34 0 .6-.045.807-.092.44-.086.58-.462.64-1.11.11-.94.11-2.69.11-4.85V64.45zM188.48 74.552c-.346-.16-.418-.265-.418-.755 0-1.227.084-2.558.106-2.917.028-.334.094-.58.272-.58.196 0 .217.2.217.376 0 .293.095.763.2 1.14.49 1.644 1.804 2.245 3.19 2.245 2 0 2.974-1.352 2.974-2.53 0-1.094-.328-2.146-2.182-3.563l-1.02-.8c-2.443-1.917-3.29-3.476-3.29-5.275 0-2.45 2.05-4.203 5.14-4.203 1.447 0 2.376.216 2.96.375.202.04.313.112.313.264 0 .29-.094.937-.094 2.668 0 .487-.06.668-.245.668-.15 0-.222-.133-.222-.4 0-.2-.106-.89-.58-1.462-.328-.432-.974-1.09-2.42-1.09-1.65 0-2.652.954-2.652 2.284 0 1.025.518 1.804 2.36 3.205l.625.47c2.668 2.066 3.648 3.564 3.648 5.673 0 1.287-.484 2.818-2.094 3.873-1.108.71-2.355.912-3.535.912-1.29.002-2.287-.157-3.25-.58zM16.216 76.29C3.872 75.35.114 68.25 4.256 60.25c2.228-4.295 5.63-8.927 1.57-13.21-.11-.143-.02-.233.157-.152 9.232 3.683 4.426 11.12 2.85 14.195-3.106 6.075-1.124 13.435 7.384 15.028.183.034.167.2 0 .18zM17.87 69.52l2.083-25.81-4.894-.002 2.627 25.812c.022.17.172.16.183 0zM23.455 56.53c3.046 2.4 8.018 15.733-4.115 19.58-.2.05-.178.2 0 .177 19.31-2.41 12.673-16.27 4.282-19.923-.234-.102-.334.035-.167.167z"/></svg>