<svg xmlns="http://www.w3.org/2000/svg" viewBox="0 0 200 120" enable-background="new 0 0 200 120"><path d="M143.82 59.555c-2.21 0-2.978 1.207-2.978 2.708v5.484c0 1.506.767 2.715 2.978 2.715 2.208 0 2.99-1.21 2.99-2.715v-5.484c0-1.5-.782-2.708-2.99-2.708m30.89 16.03h-7.055l-5.965-9.942v9.943h-6.51V45.75l6.51-1.084v19.208l5.965-9.444h7.055l-6.513 10.305 6.513 10.85zm-21.394-8.467c0 4.42-1.83 8.708-9.473 8.708-7.65 0-9.514-4.288-9.514-8.708V62.85c0-4.422 1.862-8.71 9.513-8.71 7.644 0 9.473 4.288 9.473 8.71v4.268zm-20.843 0c0 4.42-1.828 8.708-9.475 8.708-7.65 0-9.512-4.288-9.512-8.708V62.85c0-4.422 1.862-8.71 9.512-8.71 7.646 0 9.475 4.288 9.475 8.71v4.268zm-20.86-.112c0 5.125-1.465 8.863-10.35 8.863-3.207 0-5.09-.284-8.632-.828V45.75l6.508-1.084v10.246c1.407-.522 3.227-.787 4.884-.787 6.51 0 7.593 2.915 7.593 7.596v5.286zm-21.16-.1H78.518v.437c0 2.475.882 3.12 3.8 3.12 2.622 0 4.222-.13 7.592-.71v5.29c-3.25.662-4.943.836-8.133.836-6.99 0-9.768-3.67-9.768-8.974v-4.343c0-4.638 2.062-8.44 9.223-8.44 7.162 0 9.22 3.757 9.22 8.44v4.343zm-20.37-6.655c-3.376-.577-4.344-.705-5.97-.705-2.917 0-3.798.644-3.798 3.117v4.68c0 2.476.88 3.12 3.8 3.12 1.624 0 2.592-.128 5.97-.708v5.288c-2.96.663-4.885.837-6.513.837-6.99 0-9.766-3.67-9.766-8.974v-3.798c0-5.307 2.777-8.983 9.766-8.983 1.628 0 3.554.176 6.512.84v5.286zM51.636 75.628H46.21l-.234-1.37c-2.478 1.37-4.69 1.593-6.146 1.593-3.98 0-6.098-2.654-6.098-6.325 0-4.33 2.472-5.876 6.892-5.876h4.5v-.937c0-2.212-.255-2.86-3.66-2.86H35.9l.545-5.423h6.083c7.47 0 9.107 2.357 9.107 8.326v12.87zm-22.246-.04h-6.51V59.852h-3.253V54.43h3.253v-3.255c0-4.423 1.837-7.054 7.053-7.054h4.344v5.424h-2.714c-2.032 0-2.167.758-2.167 2.172l-.008 2.714h4.92l-.576 5.423h-4.344v15.733zm93.587-16.032c-2.214 0-2.98 1.207-2.98 2.708v5.484c0 1.506.766 2.715 2.98 2.715 2.208 0 2.98-1.21 2.98-2.715v-5.484c.002-1.5-.772-2.708-2.98-2.708M40.24 69.44c0 1.186.56 1.803 1.8 1.803 1.33 0 2.114-.432 3.084-.877V67.99H42.22c-1.375 0-1.98.254-1.98 1.45m40.992-10.432c-2.21 0-2.715 1.212-2.715 2.713v.843h5.427v-.842c0-1.5-.503-2.712-2.712-2.712m21.16.547c-1.328 0-2.284.435-3.255.877v10.02c.93.09 1.462.09 2.345.09 3.187 0 3.623-1.458 3.623-3.492v-4.788c0-1.5-.498-2.707-2.713-2.707"/><path d="M178.02 73.793h.26c.292 0 .542-.107.542-.384 0-.198-.143-.393-.543-.393-.118 0-.2.01-.26.018v.758zm0 1.24h-.356v-2.24c.187-.027.365-.052.632-.052.34 0 .562.07.696.17.135.098.204.25.204.464 0 .294-.194.472-.435.545v.017c.197.036.33.212.374.542.054.348.107.482.143.554h-.374c-.054-.072-.11-.277-.152-.57-.053-.286-.195-.394-.482-.394h-.248v.963zm.374-2.864c-.88 0-1.604.757-1.604 1.694 0 .954.724 1.703 1.615 1.703.89.01 1.604-.75 1.604-1.695 0-.945-.714-1.703-1.605-1.703h-.01zm.01-.313c1.096 0 1.97.892 1.97 2.007 0 1.13-.874 2.015-1.98 2.015-1.095 0-1.988-.884-1.988-2.016 0-1.115.893-2.007 1.988-2.007h.01z"/></svg>