<svg xmlns="http://www.w3.org/2000/svg" viewBox="0 0 200 120" enable-background="new 0 0 200 120"><g clip-rule="evenodd"><path d="M41.796 50.244c-2.265 0-4.867.464-6.545 1.3-.46.253-.628.632-.628 1.008v1.886c0 .593.462.84.715.84.502 0 .88-.46 1.132-.628 1.55-1.045 3.102-1.764 5.16-1.764 2.556 0 2.935 1.678 2.935 3.736l-.008.077c0 .96-.328 1.14-3.976 1.6-2.223.294-7.3 1.3-7.3 5.873 0 3.774 3.02 5.79 6.545 5.79 1.93 0 3.523-.844 4.866-2.016l.084 1.09c0 .294.21.503.42.503h3.815c.293 0 .504-.21.504-.502V55.993c0-3.4-1.806-5.75-7.718-5.75zm2.686 15.27c0 .55-1.433 2.024-3.37 2.024-2.23 0-3.073-1.602-3.073-3.202 0-2.274 1.767-4.376 6.442-4.376v5.553zM55.487 43.534c-1.852 0-2.738 1.095-2.738 2.36 0 1.513 1.093 2.525 2.737 2.525 1.642 0 2.653-1.013 2.653-2.527 0-1.264-.884-2.36-2.653-2.36zM53.086 51.24V69.1c0 .288.212.503.42.503h4.043c.292 0 .505-.214.505-.503V51.24c0-.292-.212-.506-.506-.506h-4.043c-.21 0-.42.214-.42.507zM13.92 68.506c7.075 3.326 17.14 1.39 17.14-7.073 0-7.79-13.348-7.287-13.348-12.09 0-1.935 1.853-3.24 4.21-3.24 2.106 0 3.707.717 5.39 1.94.465.334.76.546 1.138.546.464 0 .59-.297.59-.677v-2.438c0-.383-.083-.595-.464-.76-1.43-.547-3.958-1.1-6.738-1.1-5.6 0-8.633 3.457-8.633 7.374 0 8.505 13.14 6.74 13.14 12.507 0 3.496-5.054 5.938-10.907 1.85-.548-.378-.8-.588-1.18-.588-.716 0-.844.38-.844.758v2.146c0 .377.087.59.507.842zM62.224 51.24V69.1c0 .288.21.503.42.503h4.044c.294 0 .506-.214.506-.503V54.695c.8-.464 2.484-1.305 3.915-1.305 2.78 0 2.948 1.684 2.948 3.114V69.1c0 .288.21.503.422.503h4.044c.293 0 .503-.214.503-.503V56.085c0-3.412-1.81-5.77-5.855-5.77-2.315 0-4.758 1.137-6.02 1.896h-.084v-.97c0-.293-.21-.507-.506-.507h-3.916c-.21 0-.422.215-.422.508zM94.484 51.37C89.01 49.09 81.68 50.313 81.68 56.25c0 6.697 10.612 5.307 10.612 8.928 0 2.91-5.01 3.203-8.632.422-.253-.21-.506-.333-.8-.333-.42 0-.674.166-.674.754v1.64c0 .467.125.843.632 1.095 4.673 2.106 13.264 2.15 13.264-5.6 0-6.655-10.738-5.138-10.738-8.465 0-2.735 5.264-2.483 8.298-.424.25.17.587.34.8.34.42 0 .674-.17.674-.758v-1.39c0-.464-.128-.886-.632-1.093zM185.193 51.37c-5.473-2.28-12.803-1.056-12.803 4.882 0 6.697 10.615 5.307 10.615 8.928 0 2.91-5.014 3.203-8.635.422-.253-.21-.506-.333-.8-.333-.422 0-.673.166-.673.754v1.64c0 .467.126.843.632 1.095 4.67 2.106 13.266 2.15 13.266-5.6 0-6.655-10.74-5.138-10.74-8.465 0-2.735 5.264-2.483 8.297-.424.252.17.59.34.798.34.423 0 .677-.17.677-.758v-1.39c0-.464-.13-.886-.634-1.093zM143.84 56.378c0-2.02.715-3.285 5.095-2.147.547.127.884.253 1.348.253.293 0 .547-.293.547-.588V51.41c0-.422-.295-.756-.844-.884-3.03-.716-4.884.672-6.442 2.148l-.083-.043v-1.39c0-.292-.21-.506-.505-.506h-3.664c-.21 0-.42.214-.42.507V69.1c0 .288.21.503.42.503h4.042c.297 0 .507-.214.507-.503V56.378zM171.97 50.82c1.98 0 4.212-7.412.547-7.412h-1.98c-.462 0-.546.335-.546.588 0 .507 1.26 1.77 1.26 3.497 0 1.767-.67 2.4-.67 2.948 0 .215.21.382.503.382h.886zM161.315 63.79l-.25-.8-4.002-11.793c-.127-.335-.294-.464-.674-.464h-4.296c-.254 0-.38.13-.38.38 0 .128.042.256.212.675l6.99 16.97c1.18 2.866-2.273 4.928-5.603 4.002-.505-.127-.842-.252-1.305-.252-.294 0-.547.295-.547.588v2.402c0 .507.337 1.095 2.19 1.095 4.464 0 6.864-2.273 9.012-7.623l6.906-17.308c.085-.253.17-.378.17-.548 0-.21-.17-.38-.38-.38h-2.99c-.295 0-.506.17-.59.463l-4.126 11.792-.337.8zM135.247 69.1V51.24c0-.292-.21-.506-.42-.506h-4.043c-.295 0-.505.214-.505.507v14.404c-.8.462-2.486 1.304-3.917 1.304-2.78 0-2.95-1.68-2.95-3.116v-12.59c0-.294-.21-.508-.42-.508h-4.04c-.298 0-.508.214-.508.507v13.014c0 3.41 1.812 5.768 5.856 5.768 2.316 0 4.76-1.138 6.022-1.892h.085v.97c0 .288.208.503.505.503h3.916c.21 0 .42-.215.42-.503zM98.358 44.125c0-.298.21-.51.42-.51h4.043c.295 0 .506.213.506.51v8.42-.04c.8-.675 2.654-2.15 5.518-2.15 4.34 0 7.074 3.79 7.074 8.843 0 6.485-4.506 10.782-10.064 10.782-3.032 0-5.264-1.054-6.74-2.192-.63-.462-.755-1.257-.755-1.933v-21.73h-.002zm5.558 23.12c.42.25 1.052.46 2.273.46 2.694 0 4.59-2.777 4.59-7.49 0-1.772-.38-6.745-4.212-6.745-1.514 0-2.61.847-3.243 1.307V66.15c0 .382.086.757.59 1.096z"/></g></svg>