<svg xmlns="http://www.w3.org/2000/svg" viewBox="0 0 200 120" enable-background="new 0 0 200 120"><path d="M126.16 48.188c7.578 0 12.955 4.137 12.955 11.81 0 7.342-4.99 11.814-12.955 11.814-7.78 0-12.963-4.284-12.963-11.814 0-7.43 5.123-11.81 12.963-11.81zm0 18.744c4.05 0 6.43-2.782 6.43-6.934 0-4.362-2.517-6.934-6.43-6.934-4.124 0-6.455 2.778-6.455 6.934 0 3.978 2.26 6.934 6.455 6.934zm-48.512-18.46H64.906v1.778c0 1.553.83 3.072 3.025 3.072l8.137.006c3.397 0 4.61 1.098 4.61 3.82v.387h-8.61c-6.387 0-8.744 2.96-8.744 6.986 0 4.87 3.266 7.014 8.763 7.014h5.726c7.495 0 9.095-3.746 9.095-8.7v-5.73c0-5.33-1.978-8.633-9.26-8.633zm3.028 14.414c0 2.327-1.08 4.107-4.187 4.107h-3.246c-2.254 0-3.607-.602-3.607-2.46 0-1.77 1.248-2.46 3.607-2.46h7.432v.813zm24.17-9.58h3.163c2.26 0 3.607-.815 3.607-2.89V48.47h-9.01c-7.547 0-11.16 4.442-11.16 11.528 0 8.845 5.507 11.534 11.16 11.534h9.01v-1.966c0-2.047-1.41-2.873-3.453-2.873h-3.32c-3.596 0-6.918-1.287-6.918-6.696 0-4.695 2.518-6.692 6.92-6.692zm-68.082 11.92s-5.36-13.993-5.662-14.8c-.41-1.102-.973-1.955-3.006-1.955H23.47l9.506 23.062h6.913l9.81-23.06h-4.06c-1.754 0-2.426.75-2.864 1.846l-5.915 14.91h-.096zm123.322-.207s-3.938-11.227-4.66-13.35c-.49-1.424-1.157-3.2-4.363-3.2h-7.33v23.062h2.486c1.874 0 3.066-.837 3.066-2.77v-16.12h.1l7.113 18.89h6.66l7.115-18.89h.102v16.134c0 1.636.882 2.756 3.078 2.756h3.075v-23.06h-6.872c-2.435 0-3.93.665-4.67 2.833-.482 1.41-4.794 13.714-4.794 13.714h-.108zM52.566 48.47v20.35c0 1.584.944 2.712 2.99 2.712h3.24v-23.06h-6.23z"/></svg>