<svg xmlns="http://www.w3.org/2000/svg" viewBox="0 0 200 120" enable-background="new 0 0 200 120"><path d="M69.726 79.702l.392 4.417h6.988L74.753 58.43h-10.41L51.187 84.12h7.123l2.205-4.418h9.21zM69.42 74.7h-6.375l5.483-11.127h.065L69.42 74.7zM86.852 72.883h1.02l5.005-6.748h6.474l-6.91 8.635 4.24 9.35h-6.874l-2.763-7.3H86.01l-1.55 7.3h-5.886L84.03 58.43h5.89l-3.068 14.45zM108.53 84.12h5.886l2.387-11.237c1.312-6.196-1.06-6.95-7.083-6.95-4.204 0-8.274-.038-9.467 5.547h5.895c.335-1.616 1.337-1.95 2.81-1.95 2.56 0 2.447 1.062 2.086 2.735l-.602 2.844h-.275c-.218-2.053-2.792-2.022-4.47-2.022-4.247 0-6.785 1.333-7.708 5.654-.973 4.584 1.21 5.577 5.32 5.577 2.057 0 4.814-.406 5.78-2.88h.206l-.766 2.68zm-1.638-7.433c1.917 0 3.185.134 2.867 1.642-.406 1.88-1.22 2.19-3.687 2.19-.897 0-2.566 0-2.152-1.952.35-1.646 1.526-1.88 2.972-1.88zM126.308 66.135l-.54 2.535h.24c1.166-2.122 3.493-2.736 5.51-2.736 2.536 0 5.042.44 4.693 3.525h.28c.857-2.572 3.49-3.526 5.746-3.526 4.147 0 5.907 1.713 5.02 5.895l-2.62 12.29h-5.886l2.213-10.413c.293-1.877.624-3.254-1.672-3.254-2.287 0-3.062 1.533-3.467 3.46l-2.174 10.206h-5.89l2.317-10.892c.284-1.642.413-2.775-1.64-2.775-2.428 0-3.153 1.302-3.6 3.46l-2.18 10.206h-5.886l3.826-17.985h5.712zM158.152 84.12h5.89l2.387-11.237c1.316-6.196-1.05-6.95-7.076-6.95-4.217 0-8.29-.038-9.47 5.547h5.894c.335-1.616 1.34-1.95 2.802-1.95 2.573 0 2.448 1.062 2.103 2.735l-.614 2.844h-.27c-.223-2.053-2.793-2.022-4.47-2.022-4.25 0-6.798 1.333-7.71 5.654-.975 4.584 1.213 5.577 5.32 5.577 2.057 0 4.816-.406 5.787-2.88h.2l-.775 2.68zm-1.63-7.433c1.907 0 3.18.134 2.867 1.642-.397 1.88-1.216 2.19-3.692 2.19-.89 0-2.56 0-2.15-1.952.352-1.646 1.528-1.88 2.975-1.88zM177.03 62.955h-5.88l.95-4.523h5.893l-.962 4.523zm-4.5 21.164h-5.876l3.806-17.985h5.895L172.53 84.12zM54.186 90.322C41.126 86.332 31.632 74.267 31.632 60c0-14.42 9.698-26.593 22.978-30.447 1.357-.395 1-1.273-.634-1.273-17.657 0-31.97 14.2-31.97 31.72s14.313 31.72 31.97 31.72c1.635 0 1.702-.943.21-1.398zM37.687 67.428c-.09-.848-.133-1.708-.133-2.58 0-13.91 11.277-25.186 25.188-25.186 13.15 0 17.1 5.876 17.59 5.492.536-.423-4.773-12.063-20.217-12.063-13.91 0-25.186 11.278-25.186 25.188 0 3.213.602 6.283 1.7 9.108.46 1.187 1.175 1.193 1.057.042zM48.238 49.278c6.544-2.852 14.77-2.934 22.852-.113 5.427 1.895 8.577 4.6 8.832 4.49.43-.186-3.16-5.865-9.63-8.32-7.837-2.973-16.285-1.417-22.434 3.404-.68.532-.423.89.38.538z"/></svg>