<svg xmlns="http://www.w3.org/2000/svg" viewBox="0 0 200 120" enable-background="new 0 0 200 120"><path d="M83.616 59.676c-.834-.74-1.798-1.353-2.854-1.816-1.056-.463-2.15-.834-3.262-1.094-1.89-.408-3.373-.945-4.448-1.575-1.075-.63-1.612-1.445-1.612-2.464 0-.39.11-.76.334-1.094.222-.334.52-.65.89-.89.37-.26.797-.445 1.26-.612.463-.148.927-.222 1.41-.222.722 0 1.39.093 2.038.278s1.242.408 1.78.667c.536.278 1.018.556 1.463.87.426.316.816.613 1.13.872l2.818-5.32-.093-.092c-.52-.463-1.205-.908-2.02-1.353-.816-.426-1.816-.816-2.984-1.13-1.15-.316-2.484-.464-4.022-.464-1.853 0-3.466.24-4.82.74-1.37.5-2.5 1.17-3.41 2.02s-1.593 1.836-2.038 2.948c-.445 1.112-.667 2.298-.667 3.54 0 1.13.184 2.168.574 3.095.39.926.927 1.76 1.63 2.464.705.723 1.54 1.334 2.522 1.835.964.5 2.02.89 3.17 1.167 2.334.593 4.04 1.205 5.114 1.816 1.075.612 1.612 1.483 1.612 2.576 0 .518-.13.963-.39 1.37-.258.41-.592.742-1.018 1.04-.426.277-.89.5-1.39.648-.5.148-1.02.222-1.52.222-.87 0-1.687-.11-2.447-.334-.76-.222-1.464-.52-2.113-.87-.352-.186-.667-.39-.982-.613-.52-.334-1.353-.89-2.298-1.557l-2.965 5.597c.258.222.518.445.815.65.797.592 1.687 1.13 2.67 1.593.98.463 2.093.834 3.317 1.112 1.223.278 2.595.426 4.096.426 1.612 0 3.114-.24 4.504-.704s2.613-1.112 3.633-1.946c1.038-.834 1.853-1.816 2.447-2.965.593-1.132.89-2.373.89-3.726 0-1.557-.26-2.89-.76-3.966-.486-1.074-1.154-1.982-2.006-2.742zm-29.58 4.82L41.06 45.05h-6.467v29.95h6.69V55.19l13.29 19.813h6.153v-29.95h-6.69v19.442zm54.138-16.515c-.853-.89-1.946-1.593-3.262-2.13-1.316-.537-2.91-.816-4.763-.816H89.23v29.97h6.598V64.44h4.634c1.353 0 2.632-.205 3.855-.63 1.222-.427 2.316-1.04 3.26-1.836.946-.816 1.688-1.816 2.244-3.02.556-1.206.834-2.633.834-4.245 0-1.26-.204-2.466-.612-3.634-.39-1.186-1.02-2.206-1.872-3.095zm-5.394 9.842c-.74.76-1.724 1.15-2.984 1.15h-3.948v-8.397h3.91c1.26 0 2.262.39 3.004 1.186.74.798 1.13 1.817 1.13 3.078 0 1.223-.37 2.224-1.112 2.984zm29.19 10.713c-.37.167-.76.297-1.167.408-.797.222-1.724.334-2.8.334-1.315 0-2.5-.24-3.54-.723-1.055-.482-1.945-1.13-2.686-1.983-.74-.833-1.316-1.834-1.724-2.964-.408-1.13-.612-2.372-.612-3.688 0-1.28.205-2.502.613-3.65.408-1.15.982-2.17 1.724-3.04.74-.872 1.668-1.558 2.743-2.04 1.075-.5 2.298-.74 3.633-.74 1.39 0 2.613.258 3.688.76.26.11 2.188.98 4.134 2.983l3.003-5.652c-1.094-1.112-2.372-2.057-3.8-2.762-2.076-1.02-4.504-1.52-7.302-1.52-2.298 0-4.41.408-6.302 1.242-1.91.816-3.54 1.946-4.893 3.373-1.372 1.428-2.428 3.096-3.17 5.024-.74 1.928-1.13 4.003-1.13 6.227 0 2.28.37 4.357 1.13 6.266.742 1.91 1.8 3.54 3.17 4.93 1.353 1.39 2.984 2.484 4.874 3.262 1.89.778 3.966 1.168 6.246 1.168 1.372 0 2.706-.167 3.966-.5 1.28-.334 2.447-.778 3.54-1.353s2.094-1.242 2.984-2.002l.482-.425-2.687-5.19c-.76.592-2.167 1.52-4.114 2.26zm26.43 0c-.37.167-.76.297-1.167.408-.797.222-1.724.334-2.8.334-1.315 0-2.5-.24-3.54-.723-1.055-.482-1.945-1.13-2.686-1.983-.74-.833-1.334-1.834-1.724-2.964-.408-1.13-.612-2.372-.612-3.688 0-1.28.205-2.502.613-3.65.408-1.15.982-2.17 1.724-3.04.74-.872 1.668-1.558 2.743-2.04 1.075-.5 2.298-.74 3.633-.74 1.39 0 2.613.258 3.688.76.26.11 2.188.98 4.134 2.983l3.003-5.652c-1.094-1.112-2.372-2.057-3.8-2.762-2.094-.982-4.522-1.5-7.32-1.5-2.3 0-4.412.407-6.303 1.24-1.91.817-3.54 1.947-4.893 3.374s-2.408 3.095-3.168 5.023c-.74 1.928-1.13 4.003-1.13 6.227 0 2.28.37 4.356 1.13 6.265.74 1.91 1.798 3.54 3.17 4.93 1.352 1.39 2.983 2.484 4.873 3.262 1.89.778 3.966 1.168 6.246 1.168 1.373 0 2.707-.167 3.967-.5 1.28-.334 2.447-.778 3.54-1.353 1.094-.575 2.094-1.242 2.984-2.002l.483-.426-2.687-5.19c-.74.573-2.15 1.5-4.095 2.24z"/></svg>